<svg xmlns="http://www.w3.org/2000/svg" viewBox="-114.286 0 766.669 792">
  <path fill="#666" d="M109.875 403.247c-.69 0 7.564 17.824 7.794 17.824 18.016 32.806 52.746 53.2 111.332 58.857-8.357 6.363-18.4 18.437-19.793 32.388-10.517 6.82-31.664 9.075-48.097 3.872-23.038-7.29-31.855-53.015-66.342-46.496-7.46 1.396-5.98 6.338.474 10.55 10.516 6.818 20.406 15.36 28.035 33.52 5.864 13.952 18.182 38.87 57.154 38.87 15.46 0 26.297-1.866 26.297-1.866s.295 35.61.295 49.456c0 15.972-21.492 20.47-21.492 28.15 0 3.038 7.117 3.325 12.83 3.325 11.295 0 34.793-9.453 34.793-26.05 0-13.183.217-57.5.217-65.272 0-16.95 9.06-22.322 9.06-22.322s1.123 90.49-2.16 102.64c-3.86 14.265-10.823 12.244-10.823 18.607 0 9.466 28.29 2.334 37.67-18.463 7.244-16.155 4.075-104.96 4.075-104.96l7.73-.157s.435 40.64.167 59.22c-.268 19.246-1.56 43.576 9.84 55.05 7.487 7.55 31.74 20.784 31.74 8.684 0-7.027-13.29-12.803-13.29-31.826V519.29c10.618 0 9.02 28.79 9.02 28.79l.78 53.496s-2.35 19.48 21.02 27.63c8.242 2.907 25.875 3.69 26.706-1.175.83-4.862-21.237-12.1-21.44-27.17-.13-9.22.408-14.59.408-54.594s-5.354-54.788-24.022-66.575c57.602-5.932 93.265-20.222 110.63-58.49 1.354.04 7.092-17.876 6.338-17.876 3.897-14.447 6.006-31.54 6.414-51.776-.102-54.893-26.297-74.307-31.318-83.42 7.41-41.555-1.252-60.46-5.264-66.954-14.848-5.294-51.635 13.625-71.747 26.95-32.762-9.608-102.044-8.683-128.02 2.478-47.93-34.41-73.295-29.14-73.295-29.14s-16.394 29.453-4.332 72.56c-15.768 20.157-27.523 34.42-27.523 72.22 0 21.305 2.503 40.368 8.138 57.005zM269.05 787c-211.704 0-383.335-175.135-383.335-391.16 0-216.036 171.632-391.158 383.334-391.158s383.333 175.122 383.333 391.16C652.383 611.864 480.753 787 269.05 787z"/>
</svg>
