<svg xmlns="http://www.w3.org/2000/svg" viewBox="0 0 32 32" width="32" height="32">
  <path class="st0" d="M16 0C7.156 0 0 7.156 0 16c0 8.844 7.156 16 16 16 8.844 0 16-7.156 16-16 0-8.844-7.156-16-16-16zm-.756 8.436c.116-.116.232-.116.698-.116.233 0 .582.058.756.058.93.117 1.746.35 2.56.757.815.407 1.338.814 2.095 1.512.64.64 1.047 1.164 1.396 1.92.522 1.106.87 2.386.87 3.782 0 .464 0 .58-.116.754-.232.29-.698.233-.814-.058-.057-.116-.057-.174-.057-.582 0-.58-.058-.99-.175-1.454-.35-1.803-1.163-3.257-2.56-4.305C18.735 9.833 17.57 9.425 16 9.31c-.524-.06-.64-.06-.756-.117-.175-.117-.233-.524 0-.757zm3.316 3.608c-.582-.35-1.396-.582-2.153-.64-.29 0-.407-.06-.523-.175-.175-.176-.175-.41-.06-.64.118-.235.35-.235 1.05-.176 1.686.232 2.966 1.047 3.84 2.27.464.697.755 1.57.87 2.442.06.35.06.93 0 1.048-.057.116-.173.232-.23.29-.118.06-.35.06-.467 0-.232-.116-.29-.29-.29-.756 0-.7-.175-1.455-.524-2.037-.35-.697-.873-1.28-1.513-1.63zm.93 3.665c-.174.173-.465.173-.64 0-.115-.118-.174-.235-.232-.467-.058-.408-.116-.64-.233-.873-.232-.523-.698-.814-1.396-.872-.35-.058-.467-.058-.584-.233-.174-.232-.116-.64.175-.756.117-.06.175-.06.408-.06.115 0 .348.06.465.06.523.114.99.347 1.338.64.466.405.7.987.815 1.744.117.465.058.64-.116.814zm4.132 7.27c-.233.524-.99 1.514-1.57 1.92-.525.408-.874.524-1.34.524-.407 0-.523 0-1.047-.232-3.898-1.63-6.98-4.015-9.483-7.273-1.28-1.746-2.27-3.49-2.967-5.354-.408-1.105-.408-1.57-.117-2.094.117-.233.757-.815 1.164-1.106.698-.523 1.047-.756 1.28-.756.174-.057.465 0 .698.06l.35.174c.523.35 1.977 2.21 2.443 3.14.29.525.35.932.29 1.223-.116.29-.232.466-.872.99-.29.232-.522.407-.522.465-.116.116-.174.407-.174.64 0 .465.29 1.28.698 1.92.292.523.874 1.163 1.397 1.63.64.58 1.22.988 1.803 1.28.815.406 1.28.523 1.688.348.118-.058.176-.116.234-.116 0 0 .234-.29.466-.582.466-.582.524-.64.873-.757.406-.116.814-.116 1.163.117.29.174.99.582 1.396.873.58.407 1.745 1.396 1.92 1.57.406.466.465.93.232 1.397z" fill="#666"/>
</svg>
