<?xml version="1.0" ?>
<!DOCTYPE svg>
<svg xmlns="http://www.w3.org/2000/svg" viewBox="-114.286 0 766.669 792" enable-background="new -114.286 0 766.669 792">
<path fill="#666" d="M109.875,403.247c-0.69,0,7.564,17.824,7.794,17.824c18.017,32.805,52.747,53.198,111.333,58.856
	c-8.357,6.363-18.4,18.437-19.793,32.388c-10.516,6.819-31.663,9.075-48.096,3.872c-23.038-7.289-31.855-53.015-66.342-46.496
	c-7.462,1.395-5.98,6.337,0.473,10.548c10.516,6.819,20.406,15.36,28.035,33.522c5.865,13.951,18.183,38.868,57.155,38.868
	c15.461,0,26.297-1.865,26.297-1.865s0.294,35.609,0.294,49.456c0,15.972-21.492,20.471-21.492,28.15
	c0,3.038,7.117,3.325,12.829,3.325c11.296,0,34.794-9.453,34.794-26.051c0-13.182,0.217-57.5,0.217-65.271
	c0-16.95,9.059-22.322,9.059-22.322s1.124,90.488-2.159,102.64c-3.859,14.264-10.823,12.243-10.823,18.606
	c0,9.466,28.29,2.334,37.669-18.463c7.245-16.155,4.076-104.961,4.076-104.961l7.731-0.156c0,0,0.434,40.641,0.166,59.221
	c-0.268,19.245-1.559,43.575,9.839,55.049c7.488,7.549,31.74,20.784,31.74,8.684c0-7.028-13.289-12.804-13.289-31.827v-87.554
	c10.618,0,9.021,28.789,9.021,28.789l0.779,53.497c0,0-2.351,19.48,21.02,27.629c8.242,2.908,25.875,3.69,26.706-1.174
	c0.831-4.863-21.237-12.1-21.441-27.172c-0.128-9.218,0.409-14.59,0.409-54.593s-5.354-54.788-24.022-66.575
	c57.602-5.933,93.265-20.223,110.63-58.491c1.354,0.039,7.092-17.876,6.338-17.876c3.897-14.447,6.006-31.54,6.414-51.776
	c-0.102-54.893-26.297-74.307-31.318-83.421c7.411-41.554-1.252-60.46-5.264-66.953c-14.848-5.294-51.635,13.625-71.747,26.951
	c-32.762-9.609-102.044-8.684-128.021,2.477c-47.93-34.409-73.294-29.141-73.294-29.141s-16.394,29.454-4.332,72.56
	c-15.768,20.158-27.523,34.422-27.523,72.221C101.736,367.547,104.24,386.61,109.875,403.247z M269.049,787
	c-211.703,0-383.334-175.135-383.334-391.159c0-216.037,171.632-391.159,383.334-391.159s383.334,175.122,383.334,391.159
	C652.383,611.865,480.752,787,269.049,787z"/>
</svg>
