<svg viewBox="0 0 32 32" xmlns="http://www.w3.org/2000/svg"><path fill="#666" d="M16 0C7.163 0 0 7.163 0 16c0 8.836 7.163 16 16 16s16-7.164 16-16c0-8.837-7.163-16-16-16z"/><path fill="#fff" d="M24.294 22.942v-6.137c0-3.288-1.755-4.818-4.096-4.818-1.89 0-2.735 1.04-3.206 1.768v-1.517h-3.558c.047 1.005 0 10.704 0 10.704h3.558v-5.978c0-.32.023-.64.117-.867.256-.64.84-1.3 1.824-1.3 1.288 0 1.803.98 1.803 2.42v5.726h3.557zM9.684 10.777c1.24 0 2.014-.823 2.014-1.85-.023-1.05-.773-1.85-1.99-1.85s-2.012.8-2.012 1.85c0 1.028.772 1.85 1.967 1.85h.022zm1.78 12.165V12.238H7.907v10.704h3.557z"/></svg>