<svg viewBox="0 0 32 32" xmlns="http://www.w3.org/2000/svg"><path fill="#666" d="M16 0C7.163 0 0 7.163 0 16c0 8.836 7.163 16 16 16s16-7.164 16-16c0-8.837-7.163-16-16-16z"/><path fill="#fff" d="M16.735 22.517c-2.644.14-3.88-.456-5.015-1.54-1.266-1.213-.758-2.595.274-2.664 1.03-.07 1.65 1.19 2.2 1.543.55.35 2.64 1.147 3.745-.142 1.2-1.4-.8-2.126-2.27-2.346-2.094-.316-4.74-1.472-4.534-3.75.206-2.276 1.896-3.443 3.675-3.608 2.27-.21 3.745.35 4.913 1.367 1.35 1.174.62 2.486-.24 2.592-.857.104-1.82-1.932-3.71-1.963-1.947-.03-3.263 2.067-.86 2.663 2.407.596 4.983.84 5.91 3.082.928 2.243-1.442 4.624-4.088 4.765zm7.456-5.334c.05-.373.08-.753.08-1.138 0-4.633-3.723-8.39-8.313-8.39-.456 0-.904.038-1.34.11a4.899 4.899 0 0 0-2.708-.816c-2.742 0-4.96 2.252-4.96 5.032 0 1.012.292 1.95.798 2.74-.068.43-.103.873-.103 1.322 0 4.634 3.72 8.39 8.312 8.39.518 0 1.023-.05 1.514-.14.763.478 1.66.758 2.623.758 2.74 0 4.96-2.253 4.96-5.033a5.06 5.06 0 0 0-.862-2.837z"/></svg>