<svg xmlns="http://www.w3.org/2000/svg" viewBox="0 0 300 300"><circle fill="#666" cx="150.001" cy="226.085" r="11.718"/><path fill="#666" d="M182.69 68.248h-65.38c-3.666 0-6.648 2.843-6.648 6.33v123.593c0 3.492 2.98 6.332 6.647 6.332h65.38c3.666 0 6.648-2.843 6.648-6.33V74.578c-.002-3.492-2.982-6.332-6.647-6.332z"/><path fill="#666" d="M149.996 0C67.156 0 0 67.16 0 149.997S67.158 300 149.997 300 300 232.837 300 149.997 232.834 0 149.995 0zm58.358 224.02c0 11.46-9.29 20.75-20.75 20.75h-75.213c-11.457 0-20.748-9.29-20.748-20.75V75.324c0-11.458 9.29-20.75 20.75-20.75h75.213c11.458 0 20.75 9.29 20.75 20.75V224.02z"/></svg>